<svg width="32" height="32" viewBox="0 0 32 32" fill="none" xmlns="http://www.w3.org/2000/svg">
<path fill-rule="evenodd" clip-rule="evenodd" d="M9.27131 6.66303C9.60111 6.69952 9.92053 6.80105 10.2108 6.96186C10.5011 7.12277 10.7569 7.3401 10.9627 7.60053C11.421 8.09895 11.9809 8.61921 12.4403 9.09858L13.0721 9.71967C13.4431 10.0486 13.6726 10.5085 13.7137 11.0038C13.7136 11.4581 13.5458 11.8964 13.244 12.2363C13.0486 12.4739 12.8415 12.7015 12.6229 12.9179L12.4188 13.1318C12.3005 13.2421 12.2103 13.3788 12.1541 13.5302C12.1041 13.6792 12.0836 13.8319 12.0936 13.9882C12.255 14.4204 12.5089 14.8137 12.8358 15.1396C13.3462 15.8316 13.8563 16.433 14.3758 17.0849C15.3154 18.1757 16.43 19.1025 17.6746 19.8261C17.802 19.9194 17.9489 19.9817 18.1043 20.0087C18.2385 20.0187 18.3746 19.9982 18.5008 19.9482C18.8568 19.7386 19.1736 19.4701 19.4383 19.1533C19.7943 18.7173 20.3052 18.4362 20.8641 18.3691C21.4018 18.3765 21.9147 18.5961 22.2908 18.9804C22.4944 19.1529 22.7188 19.3876 22.9334 19.6122L23.2381 19.9267L23.5535 20.2333L24.0946 20.7822C24.4168 21.0683 24.7187 21.3746 25.0008 21.7001C25.2835 22.0911 25.4113 22.5754 25.3573 23.0546C25.2313 23.6192 24.9188 24.1255 24.4705 24.4912C23.9809 24.9878 23.3971 25.3821 22.7537 25.6513C22.1102 25.9206 21.4191 26.0595 20.7215 26.0595H20.3953C18.9313 25.98 17.4977 25.6096 16.1785 24.9697H16.1688C15.863 24.8273 15.5468 24.6851 15.241 24.5117C13.7011 23.6482 12.2883 22.5746 11.0438 21.3222C9.42874 19.8052 8.10341 18.0064 7.13264 16.0146C6.61686 14.9232 6.27277 13.7588 6.11213 12.5624C5.87593 11.3099 6.01809 10.0152 6.52034 8.84369C6.83744 8.31517 7.2248 7.83164 7.6717 7.40717C7.87275 7.1799 8.11826 6.9961 8.39338 6.86811C8.66861 6.74007 8.96785 6.67035 9.27131 6.66303ZM16.5457 9.3935C17.3233 9.39231 18.0937 9.54374 18.8123 9.84076C19.5309 10.1378 20.1834 10.5742 20.7332 11.124C21.2831 11.6738 21.7194 12.3272 22.0164 13.0458C22.3133 13.7643 22.4658 14.5341 22.4647 15.3115C22.4649 15.4118 22.4453 15.5117 22.4071 15.6044C22.3687 15.6973 22.312 15.7815 22.241 15.8525C22.17 15.9235 22.0858 15.9802 21.993 16.0185C21.9002 16.0568 21.8004 16.0764 21.7 16.0761C21.4981 16.0739 21.3047 15.9923 21.1619 15.8496C21.0193 15.7067 20.9384 15.5133 20.9364 15.3115C20.9373 14.7349 20.8244 14.1637 20.6043 13.6308C20.384 13.0976 20.0601 12.6129 19.6522 12.205C19.2444 11.7973 18.7603 11.4741 18.2274 11.2538C17.6942 11.0336 17.1226 10.9208 16.5457 10.9218C16.3431 10.9218 16.149 10.8405 16.0057 10.6972C15.8624 10.5539 15.7811 10.3598 15.7811 10.1572C15.7811 9.95451 15.8624 9.76044 16.0057 9.61713C16.149 9.47384 16.3431 9.3935 16.5457 9.3935ZM16.994 5.94037C18.1775 5.94037 19.3499 6.17369 20.4432 6.6269C21.5363 7.08008 22.5297 7.74381 23.366 8.581C24.2024 9.41832 24.8652 10.413 25.3172 11.5068C25.7692 12.6005 26.0011 13.7726 25.9998 14.956C26.0001 15.0564 25.9805 15.1562 25.9422 15.249C25.9039 15.3416 25.8481 15.4261 25.7772 15.497C25.7062 15.568 25.621 15.6237 25.5281 15.6621C25.4355 15.7003 25.3364 15.7189 25.2362 15.7187C25.0343 15.7166 24.8409 15.6358 24.6981 15.4931C24.5554 15.3505 24.4739 15.1577 24.4715 14.956C24.4731 13.9731 24.2812 12.9993 23.9061 12.0908C23.531 11.1823 22.9804 10.3566 22.286 9.66108C21.5915 8.96554 20.7662 8.41347 19.8582 8.03705C18.9504 7.66074 17.9767 7.46758 16.994 7.46772C16.8915 7.47138 16.789 7.45457 16.6932 7.41791C16.5974 7.38122 16.5102 7.32506 16.4364 7.25385C16.3625 7.18263 16.3036 7.09729 16.2635 7.00287C16.2234 6.90842 16.203 6.80667 16.203 6.70405C16.203 6.60139 16.2234 6.4997 16.2635 6.40522C16.3036 6.31076 16.3625 6.2255 16.4364 6.15424C16.5102 6.08303 16.5974 6.02688 16.6932 5.99018C16.789 5.95352 16.8915 5.93671 16.994 5.94037Z" fill="#11C711"/>
</svg>
